<svg xmlns="http://www.w3.org/2000/svg" fill="#d52941"  viewBox="0 0 490.27 490.27" style=" enable-background:new 0 0 490.273 490.273" xml:space="preserve">
  <path d="m313.55 152.39-230.8 230.9a17.2 17.2 0 0 0 0 24.3 17.11 17.11 0 0 0 24.2 0l230.8-230.8a17.2 17.2 0 0 0 0-24.3 17 17 0 0 0-24.2-.1zM431.15 191.89c4.4 0 8.8-1.7 12.1-5l25.2-25.2c29.1-29.1 29.1-76.4 0-105.4l-34.4-34.4a73.97 73.97 0 0 0-52.7-21.8c-19.9 0-38.6 7.8-52.7 21.8l-25.2 25.2a17.2 17.2 0 0 0 0 24.3l115.6 115.6c3.3 3.2 7.7 4.9 12.1 4.9zm-78.2-145.9a40 40 0 0 1 28.5-11.8c10.7 0 20.9 4.2 28.5 11.8l34.4 34.4a40.26 40.26 0 0 1 0 56.9l-13.2 13.2-91.4-91.4 13.2-13.1z"/>
  <path d="m162.85 467.19 243.5-243.5c6.7-6.7 6.7-17.6 0-24.3s-17.6-6.7-24.3 0l-239.3 239.5-105.6 14.2 14.2-105.6 228.6-228.6a17.2 17.2 0 0 0 0-24.3 17.2 17.2 0 0 0-24.3 0l-232.6 232.8c-2.7 2.7-4.4 6.1-4.9 9.8l-18 133.6a17.15 17.15 0 0 0 17 19.4c.8 0 1.5-.1 2.3-.2l133.6-18c3.7-.4 7.2-2.1 9.8-4.8z"/>
</svg>
